<?xml version="1.0" standalone="no"?>
<!DOCTYPE svg PUBLIC "-//W3C//DTD SVG 20010904//EN"
 "http://www.w3.org/TR/2001/REC-SVG-20010904/DTD/svg10.dtd">
<svg version="1.0" xmlns="http://www.w3.org/2000/svg"
 width="192.000000pt" height="192.000000pt" viewBox="0 0 192.000000 192.000000"
 preserveAspectRatio="xMidYMid meet">
<metadata>
Created by potrace 1.14, written by Peter Selinger 2001-2017
</metadata>
<g transform="translate(0.000000,192.000000) scale(0.100000,-0.100000)"
fill="#000000" stroke="none">
<path d="M227 1902 c-2 -4 -5 -77 -5 -164 l-1 -156 32 -13 c38 -14 44 -16 58
-18 5 0 8 -5 5 -10 -3 -5 0 -9 7 -8 35 1 48 -4 41 -15 -5 -9 -2 -9 9 1 13 11
17 11 17 1 0 -8 3 -10 6 -7 4 3 15 2 26 -4 11 -6 32 -13 46 -15 15 -3 31 -9
35 -13 5 -5 9 -56 10 -115 l2 -107 -45 -13 c-25 -7 -91 -26 -147 -41 l-103
-29 1 -169 c2 -146 4 -169 18 -174 63 -21 131 -49 131 -55 0 -4 7 -5 15 -2 8
4 21 1 29 -5 7 -6 17 -7 21 -3 5 4 5 -1 2 -10 -3 -10 -2 -20 4 -23 5 -4 9 -3
8 2 -3 19 3 21 31 12 24 -9 30 -17 31 -42 0 -18 1 -63 2 -100 1 -38 -2 -71 -6
-74 -4 -2 -69 -21 -145 -42 l-137 -37 -3 -183 c-2 -122 1 -180 8 -176 5 3 18
8 27 10 43 9 170 48 187 57 13 7 21 6 26 -2 5 -8 9 -7 14 5 4 11 13 15 25 12
12 -3 22 1 25 9 3 8 11 14 17 14 8 0 7 -5 -2 -18 -7 -9 -2 -7 12 6 29 25 49
28 68 10 11 -11 12 -10 6 0 -4 8 -2 13 6 11 8 -1 80 -1 162 0 l147 1 0 55 c0
44 4 57 18 61 9 3 25 10 35 15 11 6 17 6 17 -1 0 -5 4 -10 10 -10 5 0 7 7 4
15 -5 11 1 15 17 15 19 0 21 -2 9 -10 -10 -7 -11 -10 -2 -10 7 0 15 7 18 15 4
8 10 12 15 9 5 -3 9 0 9 7 0 7 3 9 7 6 3 -4 11 -3 17 2 20 17 81 17 71 1 -3
-5 -1 -10 5 -10 7 0 9 8 4 22 -6 21 -5 21 10 9 12 -10 16 -11 14 -2 -3 13 99
57 109 47 3 -3 6 -57 7 -121 l0 -115 216 2 215 3 1 668 c1 603 -1 667 -15 668
-19 1 -355 1 -393 0 -17 -1 -27 -6 -25 -13 1 -8 -6 -12 -18 -10 -23 4 -30 6
-305 102 -113 40 -329 114 -480 166 -151 51 -283 98 -292 104 -9 5 -19 6 -21
2z m1108 -731 c-3 -6 -10 -9 -14 -7 -4 3 -8 -2 -8 -10 0 -10 4 -11 11 -4 5 5
12 10 16 10 7 0 4 -99 -4 -107 -9 -9 -386 -6 -386 4 0 8 45 20 55 15 19 -12
46 -8 58 7 10 14 10 14 -4 4 -13 -10 -16 -10 -16 1 0 15 14 16 36 2 11 -7 11
-10 0 -17 -10 -6 -10 -9 -2 -9 6 0 15 5 18 10 5 8 12 7 23 -2 10 -7 14 -8 9
-3 -4 4 0 16 8 25 13 14 13 17 0 17 -8 0 -11 -5 -8 -11 3 -6 3 -8 -2 -4 -4 4
-14 3 -20 -2 -9 -7 -14 -6 -18 3 -3 8 0 14 6 15 12 1 48 9 57 12 3 1 8 2 13 1
4 0 7 4 7 10 0 6 6 9 13 6 6 -2 21 3 32 12 18 15 19 15 6 -1 -10 -14 -11 -18
-1 -18 10 0 10 -3 0 -15 -7 -9 -10 -18 -6 -22 3 -3 6 -1 6 7 0 9 4 10 13 2 8
-7 18 -8 27 -1 12 8 11 9 -4 7 -12 -2 -20 4 -21 15 -4 20 6 22 23 5 7 -7 12
-8 12 -4 0 5 -6 14 -13 20 -7 6 -10 10 -8 9 2 -2 10 2 17 8 8 7 14 6 20 -2 4
-8 3 -9 -4 -5 -8 5 -10 1 -5 -9 4 -13 8 -14 13 -4 5 7 6 19 2 27 -3 9 -1 13 4
9 6 -3 16 -2 24 3 17 11 25 6 15 -9z"/>
<path d="M1174 1118 c-3 -5 -9 -6 -13 -4 -10 6 -7 -31 3 -41 4 -5 7 -3 6 2 -4
20 0 36 9 31 5 -3 14 0 20 7 8 10 7 14 -5 14 -8 0 -17 -4 -20 -9z"/>
<path d="M315 780 c-3 -5 -1 -10 4 -10 6 0 11 5 11 10 0 6 -2 10 -4 10 -3 0
-8 -4 -11 -10z"/>
<path d="M390 760 c0 -5 5 -10 11 -10 5 0 7 5 4 10 -3 6 -8 10 -11 10 -2 0 -4
-4 -4 -10z"/>
<path d="M1135 370 c3 -5 8 -10 11 -10 2 0 4 5 4 10 0 6 -5 10 -11 10 -5 0 -7
-4 -4 -10z"/>
<path d="M1166 371 c-3 -5 2 -15 12 -22 15 -12 16 -12 5 2 -7 9 -10 19 -6 22
3 4 4 7 0 7 -3 0 -8 -4 -11 -9z"/>
<path d="M1110 349 c0 -5 5 -7 10 -4 6 3 10 8 10 11 0 2 -4 4 -10 4 -5 0 -10
-5 -10 -11z"/>
<path d="M995 320 c-3 -5 -1 -10 4 -10 6 0 11 5 11 10 0 6 -2 10 -4 10 -3 0
-8 -4 -11 -10z"/>
<path d="M596 182 c-3 -5 1 -9 9 -9 8 0 12 4 9 9 -3 4 -7 8 -9 8 -2 0 -6 -4
-9 -8z"/>
<path d="M360 120 c-9 -6 -10 -10 -3 -10 6 0 15 5 18 10 8 12 4 12 -15 0z"/>
<path d="M415 120 c3 -5 8 -10 11 -10 2 0 4 5 4 10 0 6 -5 10 -11 10 -5 0 -7
-4 -4 -10z"/>
</g>
</svg>
